<?xml version="1.0" standalone="no"?>
<!DOCTYPE svg PUBLIC "-//W3C//DTD SVG 20010904//EN"
 "http://www.w3.org/TR/2001/REC-SVG-20010904/DTD/svg10.dtd">
<svg version="1.0" xmlns="http://www.w3.org/2000/svg"
 width="512.000000pt" height="512.000000pt" viewBox="0 0 512.000000 512.000000"
 preserveAspectRatio="xMidYMid meet">
<metadata>
Created by potrace 1.16, written by Peter Selinger 2001-2019
</metadata>
<g transform="translate(0.000000,512.000000) scale(0.100000,-0.100000)"
fill="#000000" stroke="none">
<path d="M2310 5114 c-336 -40 -616 -121 -882 -255 -274 -137 -463 -273 -678
-489 -396 -395 -632 -858 -727 -1425 -26 -158 -26 -612 0 -770 65 -389 192
-715 400 -1030 100 -151 185 -254 327 -395 395 -396 858 -632 1425 -727 158
-26 612 -26 770 0 389 65 715 192 1030 400 151 100 254 185 395 327 396 395
632 858 727 1425 26 158 26 612 0 770 -65 389 -192 715 -400 1030 -100 151
-185 254 -327 395 -393 394 -856 631 -1420 726 -91 16 -552 28 -640 18z m567
-323 c996 -147 1767 -918 1914 -1914 26 -181 26 -453 0 -634 -147 -996 -918
-1767 -1914 -1914 -181 -26 -453 -26 -634 0 -996 147 -1767 918 -1914 1914
-26 181 -26 453 0 634 146 992 914 1763 1905 1913 173 26 468 26 643 1z"/>
<path d="M1385 3730 l-320 -320 425 -425 425 -425 -425 -425 -425 -425 323
-322 322 -323 425 425 425 425 425 -425 425 -425 322 323 323 322 -425 425
-425 425 425 425 425 425 -323 322 -322 323 -425 -425 -425 -425 -423 423
c-232 232 -424 422 -427 422 -3 0 -149 -144 -325 -320z m1598 -542 l422 422
103 -102 102 -103 -422 -422 -423 -423 423 -423 422 -422 -102 -103 -103 -102
-422 422 -423 423 -423 -423 -422 -422 -103 102 -102 103 422 422 423 423
-423 423 -422 422 102 103 103 102 422 -422 423 -423 423 423z"/>
</g>
</svg>
