<?xml version="1.0" standalone="no"?>
<!DOCTYPE svg PUBLIC "-//W3C//DTD SVG 20010904//EN"
 "http://www.w3.org/TR/2001/REC-SVG-20010904/DTD/svg10.dtd">
<svg version="1.0" xmlns="http://www.w3.org/2000/svg"
 width="512.000000pt" height="512.000000pt" viewBox="0 0 512.000000 512.000000"
 preserveAspectRatio="xMidYMid meet">
<metadata>
Created by potrace 1.16, written by Peter Selinger 2001-2019
</metadata>
<g transform="translate(0.000000,512.000000) scale(0.100000,-0.100000)"
fill="#000000" stroke="none">
<path d="M2310 5114 c-336 -40 -616 -121 -882 -255 -274 -137 -463 -273 -678
-489 -396 -395 -632 -858 -727 -1425 -14 -89 -18 -164 -18 -390 1 -308 12
-406 75 -647 230 -884 944 -1598 1828 -1828 244 -64 338 -74 652 -74 314 0
408 10 652 74 884 230 1598 944 1828 1828 63 241 74 339 75 647 0 226 -4 301
-18 390 -65 389 -192 715 -400 1030 -100 151 -185 254 -327 395 -393 394 -856
631 -1420 726 -91 16 -552 28 -640 18z m567 -323 c996 -147 1767 -918 1914
-1914 26 -181 26 -453 0 -634 -147 -996 -918 -1767 -1914 -1914 -181 -26 -453
-26 -634 0 -996 147 -1767 918 -1914 1914 -26 181 -26 453 0 634 146 992 914
1763 1905 1913 173 26 468 26 643 1z"/>
<path d="M2995 3095 l-720 -654 -360 359 -360 360 -323 -323 -322 -322 668
-668 668 -668 1029 937 c567 515 1036 942 1044 949 12 11 -33 65 -290 348
-167 185 -306 336 -309 336 -3 1 -329 -294 -725 -654z m892 4 c-1 -3 -369
-339 -817 -747 l-815 -741 -452 452 -453 452 102 102 103 103 355 -355 356
-356 714 650 715 651 97 -103 c53 -56 96 -105 95 -108z"/>
</g>
</svg>
