<?xml version="1.0" standalone="no"?>
<!DOCTYPE svg PUBLIC "-//W3C//DTD SVG 20010904//EN"
 "http://www.w3.org/TR/2001/REC-SVG-20010904/DTD/svg10.dtd">
<svg version="1.0" xmlns="http://www.w3.org/2000/svg"
 width="512.000000pt" height="512.000000pt" viewBox="0 0 512.000000 512.000000"
 preserveAspectRatio="xMidYMid meet">
<metadata>
Created by potrace 1.16, written by Peter Selinger 2001-2019
</metadata>
<g transform="translate(0.000000,512.000000) scale(0.100000,-0.100000)"
fill="#000000" stroke="none">
<path d="M1860 4795 l0 -325 -750 0 -750 0 0 -605 0 -605 144 0 144 0 6 -47
c4 -27 76 -745 161 -1598 85 -852 157 -1565 160 -1582 l6 -33 1579 0 1579 0 6
33 c3 17 75 730 160 1582 85 853 157 1571 161 1598 l6 47 144 0 144 0 0 605 0
605 -750 0 -750 0 0 325 0 325 -700 0 -700 0 0 -325z m1090 -150 l0 -175 -390
0 -390 0 0 175 0 175 390 0 390 0 0 -175z m1500 -780 l0 -295 -1890 0 -1890 0
0 295 0 295 1890 0 1890 0 0 -295z m-295 -642 c-3 -21 -68 -666 -145 -1433
-77 -767 -142 -1416 -146 -1442 l-6 -48 -1298 0 -1298 0 -6 48 c-4 26 -69 675
-146 1442 -77 767 -142 1412 -145 1433 l-5 37 1600 0 1600 0 -5 -37z"/>
<path d="M1606 2588 c5 -69 84 -1542 84 -1576 0 -22 3 -22 155 -22 141 0 155
2 155 18 1 40 -81 1580 -86 1610 l-5 32 -154 0 -154 0 5 -62z"/>
<path d="M2410 1820 l0 -830 150 0 150 0 0 830 0 830 -150 0 -150 0 0 -830z"/>
<path d="M3206 2618 c-5 -30 -87 -1568 -86 -1610 0 -16 14 -18 155 -18 152 0
155 0 155 22 0 34 79 1507 84 1576 l5 62 -154 0 -154 0 -5 -32z"/>
</g>
</svg>
