<?xml version="1.0" standalone="no"?>
<!DOCTYPE svg PUBLIC "-//W3C//DTD SVG 20010904//EN"
 "http://www.w3.org/TR/2001/REC-SVG-20010904/DTD/svg10.dtd">
<svg version="1.0" xmlns="http://www.w3.org/2000/svg"
 width="512.000000pt" height="512.000000pt" viewBox="0 0 512.000000 512.000000"
 preserveAspectRatio="xMidYMid meet">
<metadata>
Created by potrace 1.16, written by Peter Selinger 2001-2019
</metadata>
<g transform="translate(0.000000,512.000000) scale(0.100000,-0.100000)"
fill="#000000" stroke="none">
<path d="M1156 4166 c-632 -523 -1151 -956 -1153 -962 -2 -6 517 -442 1154
-969 l1158 -957 3 586 2 586 28 0 c93 -1 334 -23 432 -40 410 -73 807 -252
1127 -510 190 -154 406 -400 543 -620 214 -343 360 -823 360 -1186 l0 -94 155
0 155 0 0 608 c0 653 -5 741 -55 986 -73 360 -221 719 -423 1026 -434 661
-1110 1120 -1877 1275 -120 25 -350 55 -412 55 l-33 0 0 585 c0 322 -3 585 -7
584 -5 0 -525 -429 -1157 -953z m1047 -520 c361 -14 634 -68 927 -183 347
-137 637 -328 905 -597 392 -392 632 -847 736 -1391 30 -158 27 -162 -41 -51
-134 219 -225 334 -429 536 -286 283 -585 478 -948 616 -352 133 -671 183
-1180 184 l-153 0 -2 -414 -3 -414 -760 629 c-418 345 -760 633 -760 640 0 6
342 294 760 640 l760 628 3 -408 2 -408 183 -7z"/>
</g>
</svg>
