<?xml version="1.0" standalone="no"?>
<!DOCTYPE svg PUBLIC "-//W3C//DTD SVG 20010904//EN"
 "http://www.w3.org/TR/2001/REC-SVG-20010904/DTD/svg10.dtd">
<svg version="1.0" xmlns="http://www.w3.org/2000/svg"
 width="512.000000pt" height="512.000000pt" viewBox="0 0 512.000000 512.000000"
 preserveAspectRatio="xMidYMid meet">
<metadata>
Created by potrace 1.16, written by Peter Selinger 2001-2019
</metadata>
<g transform="translate(0.000000,512.000000) scale(0.100000,-0.100000)"
fill="#000000" stroke="none">
<path d="M3960 4815 l-305 -305 -1827 0 -1828 0 0 -2255 0 -2255 2255 0 2255
0 0 1827 0 1828 307 307 308 308 -425 425 c-234 234 -427 425 -430 425 -3 0
-142 -137 -310 -305z m520 -340 l205 -205 -110 -110 -110 -110 -207 207 -208
208 107 107 c59 60 110 108 113 108 3 0 97 -92 210 -205z m-1142 -1552 c-497
-497 -904 -900 -905 -896 -2 5 -18 82 -36 173 l-33 164 -173 35 -173 34 904
904 903 903 207 -207 208 -208 -902 -902z m-886 384 l-892 -892 -211 -633
c-116 -348 -209 -636 -206 -639 3 -3 291 90 639 206 l633 211 892 892 893 893
0 -1518 0 -1517 -1945 0 -1945 0 0 1945 0 1945 1517 0 1518 0 -893 -893z
m-483 -1182 c69 -14 126 -27 128 -28 3 -4 62 -291 60 -293 -9 -6 -521 -173
-524 -171 -1 2 37 121 84 265 80 237 89 261 108 257 11 -3 76 -16 144 -30z"/>
</g>
</svg>
