<?xml version="1.0" standalone="no"?>
<!DOCTYPE svg PUBLIC "-//W3C//DTD SVG 20010904//EN"
 "http://www.w3.org/TR/2001/REC-SVG-20010904/DTD/svg10.dtd">
<svg version="1.0" xmlns="http://www.w3.org/2000/svg"
 width="512.000000pt" height="512.000000pt" viewBox="0 0 512.000000 512.000000"
 preserveAspectRatio="xMidYMid meet">
<metadata>
Created by potrace 1.16, written by Peter Selinger 2001-2019
</metadata>
<g transform="translate(0.000000,512.000000) scale(0.100000,-0.100000)"
fill="#000000" stroke="none">
<path d="M3680 5105 c-177 -33 -362 -115 -501 -220 -51 -39 -311 -291 -666
-647 -611 -613 -642 -648 -721 -816 -28 -59 -32 -63 -118 -107 -49 -25 -127
-74 -174 -109 -125 -95 -1233 -1209 -1292 -1301 -101 -155 -175 -341 -198
-503 -20 -132 -8 -374 23 -492 57 -217 160 -395 321 -556 161 -161 339 -265
553 -321 132 -34 381 -43 522 -19 185 32 365 110 512 221 51 39 312 292 666
647 612 614 642 648 722 818 27 57 34 64 93 92 165 78 204 113 816 722 358
357 608 613 647 665 110 146 189 330 222 516 23 137 14 388 -20 518 -112 426
-448 762 -874 874 -84 22 -124 26 -278 29 -127 2 -202 -1 -255 -11z m349 -300
c126 -12 309 -86 415 -167 146 -111 262 -267 316 -424 73 -208 67 -454 -15
-655 -63 -155 -86 -181 -679 -777 -309 -310 -590 -586 -626 -613 -88 -68 -226
-134 -335 -161 -125 -31 -304 -31 -428 0 -251 62 -477 238 -591 459 l-16 33
37 16 c104 44 238 23 321 -50 119 -105 191 -146 310 -177 148 -38 310 -17 455
58 65 33 122 86 620 582 302 300 569 574 593 607 183 255 158 590 -61 809
-148 149 -353 211 -556 171 -101 -21 -171 -51 -253 -110 -33 -25 -274 -258
-534 -519 l-474 -474 -69 14 c-39 7 -118 16 -177 21 l-107 8 585 586 c621 621
642 640 799 703 116 48 277 77 371 69 19 -2 64 -6 99 -9z m22 -626 c70 -37
102 -72 138 -149 36 -76 36 -172 -1 -251 -26 -57 -32 -64 -715 -742 l-189
-187 -49 72 c-65 96 -221 251 -317 315 l-76 51 436 435 c241 239 453 443 472
452 106 55 203 56 301 4z m-1603 -1069 c245 -60 473 -238 586 -457 l16 -33
-37 -17 c-26 -11 -65 -17 -123 -17 -101 -1 -141 16 -235 101 -198 178 -484
212 -728 86 -66 -33 -122 -86 -625 -587 -654 -651 -667 -668 -702 -875 -51
-304 141 -607 440 -695 177 -52 401 -13 543 96 23 17 260 248 527 514 l485
482 66 -14 c36 -7 115 -17 175 -22 l109 -8 -560 -563 c-308 -309 -589 -585
-625 -612 -279 -211 -674 -241 -979 -73 -192 106 -340 275 -416 478 -79 210
-75 458 10 667 63 155 86 181 679 777 309 310 590 586 626 613 221 167 500
225 768 159z m-525 -961 c70 -94 184 -202 282 -268 l73 -49 -437 -435 c-493
-492 -492 -492 -626 -492 -125 0 -222 61 -277 173 -27 55 -33 78 -33 132 0
130 -11 116 484 613 438 440 446 447 461 425 8 -12 41 -57 73 -99z"/>
</g>
</svg>
