<?xml version="1.0" standalone="no"?>
<!DOCTYPE svg PUBLIC "-//W3C//DTD SVG 20010904//EN"
 "http://www.w3.org/TR/2001/REC-SVG-20010904/DTD/svg10.dtd">
<svg version="1.0" xmlns="http://www.w3.org/2000/svg"
 width="512.000000pt" height="512.000000pt" viewBox="0 0 512.000000 512.000000"
 preserveAspectRatio="xMidYMid meet">
<metadata>
Created by potrace 1.16, written by Peter Selinger 2001-2019
</metadata>
<g transform="translate(0.000000,512.000000) scale(0.100000,-0.100000)"
fill="#000000" stroke="none">
<path d="M2310 5114 c-336 -40 -616 -121 -882 -255 -274 -137 -463 -273 -678
-489 -396 -395 -632 -858 -727 -1425 -26 -158 -26 -612 0 -770 65 -389 192
-715 400 -1030 100 -151 185 -254 327 -395 395 -396 858 -632 1425 -727 158
-26 612 -26 770 0 389 65 715 192 1030 400 151 100 254 185 395 327 396 395
632 858 727 1425 26 158 26 612 0 770 -65 389 -192 715 -400 1030 -100 151
-185 254 -327 395 -393 394 -856 631 -1420 726 -91 16 -552 28 -640 18z m567
-323 c996 -147 1767 -918 1914 -1914 26 -181 26 -453 0 -634 -147 -996 -918
-1767 -1914 -1914 -181 -26 -453 -26 -634 0 -996 147 -1767 918 -1914 1914
-26 181 -26 453 0 634 146 992 914 1763 1905 1913 173 26 468 26 643 1z"/>
<path d="M2374 4350 c-391 -70 -714 -364 -830 -755 -23 -77 -27 -114 -31 -262
l-6 -173 450 0 450 0 5 94 c4 72 10 102 26 127 76 123 262 72 262 -71 0 -59
-22 -89 -135 -183 -135 -112 -216 -208 -303 -361 -111 -193 -152 -363 -152
-627 l0 -179 449 0 448 0 5 138 c6 197 31 244 201 384 186 154 306 338 369
569 20 74 23 106 22 269 0 171 -2 192 -28 275 -108 360 -374 625 -731 731 -78
23 -112 27 -255 30 -91 1 -188 -1 -216 -6z m413 -333 c234 -81 407 -257 485
-491 20 -62 23 -89 22 -221 0 -136 -3 -157 -27 -224 -57 -157 -130 -256 -286
-386 -143 -119 -234 -252 -261 -380 l-11 -55 -146 0 -145 0 7 43 c22 136 81
281 159 390 47 67 154 175 254 257 117 96 172 211 172 360 0 256 -192 450
-446 450 -186 0 -343 -98 -416 -257 l-19 -43 -149 0 c-83 0 -150 1 -150 3 0
22 40 128 71 187 74 142 200 263 345 332 124 58 178 68 334 64 112 -3 147 -8
207 -29z"/>
<path d="M2413 1640 c-188 -67 -303 -231 -303 -430 0 -259 191 -450 450 -450
259 0 450 191 450 450 0 201 -117 365 -307 431 -75 25 -216 25 -290 -1z m221
-309 c43 -29 66 -70 66 -121 0 -80 -60 -140 -140 -140 -80 0 -140 60 -140 140
0 51 23 92 66 121 38 25 110 25 148 0z"/>
</g>
</svg>
