<?xml version="1.0" standalone="no"?>
<!DOCTYPE svg PUBLIC "-//W3C//DTD SVG 20010904//EN"
 "http://www.w3.org/TR/2001/REC-SVG-20010904/DTD/svg10.dtd">
<svg version="1.0" xmlns="http://www.w3.org/2000/svg"
 width="512.000000pt" height="512.000000pt" viewBox="0 0 512.000000 512.000000"
 preserveAspectRatio="xMidYMid meet">
<metadata>
Created by potrace 1.16, written by Peter Selinger 2001-2019
</metadata>
<g transform="translate(0.000000,512.000000) scale(0.100000,-0.100000)"
fill="#000000" stroke="none">
<path d="M1836 5109 c-361 -47 -722 -195 -1017 -419 -108 -83 -306 -281 -389
-389 -228 -301 -373 -658 -420 -1031 -13 -109 -13 -391 0 -500 47 -373 192
-731 421 -1031 83 -109 281 -308 388 -389 294 -222 636 -365 997 -415 128 -18
402 -21 530 -5 281 35 566 128 797 261 l89 52 577 -576 c317 -316 596 -587
620 -602 74 -46 145 -65 241 -65 169 0 301 75 394 223 79 128 75 331 -9 468
-15 24 -286 303 -602 620 l-576 577 52 89 c100 174 190 412 230 608 60 298 57
633 -9 914 -66 278 -202 567 -380 802 -81 107 -280 305 -389 388 -300 229
-658 374 -1031 421 -99 12 -415 11 -514 -1z m522 -315 c559 -89 1023 -409
1306 -900 145 -251 227 -566 227 -874 0 -482 -183 -921 -526 -1265 -344 -343
-783 -526 -1265 -526 -474 0 -916 182 -1253 514 -283 279 -458 621 -521 1019
-21 129 -21 387 0 516 76 481 326 897 708 1179 240 177 479 280 781 333 133
24 408 26 543 4z m1883 -3711 c301 -302 552 -558 558 -570 31 -60 1 -157 -58
-188 -38 -19 -104 -19 -139 -1 -15 8 -272 260 -572 560 l-545 546 100 100 c55
55 102 100 105 100 3 0 251 -246 551 -547z"/>
<path d="M1860 4505 c-316 -54 -581 -188 -808 -409 -239 -232 -391 -529 -441
-863 -14 -93 -14 -333 0 -426 48 -322 187 -603 413 -835 233 -241 527 -391
863 -441 93 -14 333 -14 426 0 336 50 630 200 863 441 228 234 365 511 413
835 14 93 14 333 0 426 -48 324 -185 601 -413 835 -232 239 -529 391 -863 441
-95 15 -359 12 -453 -4z m530 -328 c215 -56 394 -159 550 -316 158 -158 259
-333 318 -551 24 -87 26 -111 26 -290 0 -179 -2 -203 -26 -290 -59 -218 -161
-394 -317 -551 -157 -156 -333 -258 -551 -317 -87 -24 -111 -26 -290 -26 -179
0 -203 2 -290 26 -218 59 -393 160 -551 318 -156 155 -258 332 -317 550 -24
87 -26 112 -26 290 0 178 2 203 26 290 125 461 487 797 952 886 48 9 125 12
236 10 136 -3 182 -8 260 -29z"/>
</g>
</svg>
